<?xml version="1.0" encoding="utf-8"?>

<!-- License Agreement at http://iconmonstr.com/license/ -->

<!DOCTYPE svg PUBLIC "-//W3C//DTD SVG 1.1//EN" "http://www.w3.org/Graphics/SVG/1.1/DTD/svg11.dtd">
<svg version="1.1" xmlns="http://www.w3.org/2000/svg" xmlns:xlink="http://www.w3.org/1999/xlink" x="0px" y="0px"
	 width="512px" height="512px" viewBox="0 0 512 512" enable-background="new 0 0 512 512" xml:space="preserve">
<path id="flag-18-icon" fill="limegreen" d="M253.765,355.17c-10.604-4.327-22.65-7.633-35.453-9.945v30.413
	c25.839,5.235,45.197,14.396,45.584,24.308c-0.599,15.321-46.52,28.854-91.652,28.854c-45.189,0-91.146-13.53-91.711-28.854
	c0.364-9.882,19.608-19.016,45.35-24.259v-30.41c-12.691,2.31-24.636,5.599-35.162,9.894C55.291,369.624,50,389.429,50,399.945
	c0,10.519,5.291,30.323,40.72,44.777c45.562,18.589,117.514,18.575,163.045,0c35.429-14.454,40.72-34.259,40.72-44.777
	C294.484,389.429,289.193,369.624,253.765,355.17z M191.683,403.882h-39.239V53.341h39.239V403.882z M462,79.501
	c0,0-24.741,21.817-57.281,21.817c-51.281,0-52.435-44.179-111.965-44.179c-32.188,0-62.201,14.955-74.911,25.851
	c0,10.753,0,184.425,0,184.425c18.041-12.503,45.456-25.647,75.115-25.647c56.223,0,64.104,42.021,114.219,42.021
	c32.367,0,54.823-20.732,54.823-20.732V79.501z"/>
</svg>
